<?xml version="1.0" encoding="iso-8859-1"?>
<!-- Uploaded to: SVG Repo, www.svgrepo.com, Generator: SVG Repo Mixer Tools -->
<svg height="800px" width="800px" version="1.1" id="Layer_1" xmlns="http://www.w3.org/2000/svg" xmlns:xlink="http://www.w3.org/1999/xlink" 
	 viewBox="0 0 511.999 511.999" xml:space="preserve">
<path style="fill:#FF9F19;" d="M482.681,366.107c23.737,33.322,19.948,78.569-9.028,107.545
	c-29.049,29.256-74.84,32.462-107.545,9.027l-11.479-8.135l-22.845,22.735c-19.613,19.612-51.235,19.643-70.88,0l-205.84-205.84
	l-40.343-40.343c-19.611-19.611-19.642-51.237,0-70.879l22.735-22.846l-8.137-11.479C5.582,112.569,9.371,67.322,38.347,38.346
	c29.313-29.521,75.514-31.978,107.545-9.027l11.479,8.136l22.845-22.735c19.615-19.612,51.236-19.641,70.88,0l246.183,246.183
	c19.611,19.611,19.642,51.237,0,70.879l-22.735,22.846L482.681,366.107z"/>
<path style="fill:#F28618;" d="M29.319,145.891l8.137,11.479l-22.735,22.846c-19.643,19.642-19.612,51.267,0,70.879l40.343,40.343
	l205.84,205.84c19.644,19.643,51.266,19.612,70.88,0l22.845-22.735l11.479,8.135c32.706,23.435,78.494,20.228,107.545-9.027
	L38.347,38.346C9.371,67.322,5.582,112.569,29.319,145.891z"/>
<path style="fill:#FFDFB3;" d="M284.536,473.627L38.355,227.457c-6.618-6.618-6.606-16.983,0.011-23.601
	C72.529,169.52,167.725,74.318,203.803,38.419c6.744-6.755,17.193-6.527,23.66-0.049L473.644,284.54
	c6.618,6.618,6.606,16.983-0.011,23.601c-33.771,33.945-129.142,129.321-165.437,165.437
	C301.453,480.334,291.004,480.107,284.536,473.627z"/>
<path style="fill:#FFCC99;" d="M121.046,121.044c-32.81,32.808-65.48,65.524-82.68,82.812c-6.618,6.618-6.628,16.983-0.011,23.601
	l246.181,246.171c6.467,6.478,16.916,6.706,23.66-0.049c17.979-17.89,50.455-50.323,82.757-82.626L121.046,121.044z"/>
<path style="fill:#99522E;" d="M179.338,329.788c-27.654,0-50.15-22.496-50.15-50.15s22.496-50.15,50.15-50.15
	s50.15,22.496,50.15,50.15S206.992,329.788,179.338,329.788z M179.338,262.921c-9.218,0-16.717,7.499-16.717,16.717
	c0,9.218,7.499,16.717,16.717,16.717c9.218,0,16.717-7.499,16.717-16.717S188.556,262.921,179.338,262.921z"/>
<g>
	<path style="fill:#A6673A;" d="M379.94,329.788c-27.654,0-50.15-22.496-50.15-50.15s22.496-50.15,50.15-50.15
		s50.15,22.496,50.15,50.15S407.594,329.788,379.94,329.788z M379.94,262.921c-9.218,0-16.717,7.499-16.717,16.717
		c0,9.218,7.499,16.717,16.717,16.717c9.218,0,16.717-7.499,16.717-16.717S389.157,262.921,379.94,262.921z"/>
	<path style="fill:#A6673A;" d="M279.639,413.372c-9.229,0-16.717-7.482-16.717-16.717V162.62c0-9.234,7.488-16.717,16.717-16.717
		s16.717,7.482,16.717,16.717v234.035C296.355,405.89,288.867,413.372,279.639,413.372z"/>
</g>
<g>
	<path style="fill:#99522E;" d="M262.922,262.921v133.734c0,9.234,7.488,16.717,16.717,16.717s16.717-7.482,16.717-16.717V296.355
		L262.922,262.921z"/>
	<path style="fill:#99522E;" d="M102.317,244.186l-47.253,47.253l-23.626-23.626l47.254-47.253c6.573-6.575,17.05-6.575,23.625,0
		C108.893,227.023,108.893,237.611,102.317,244.186z"/>
</g>
<path style="fill:#A6673A;" d="M125.977,196.897c-6.53-6.524-6.53-17.109,0-23.639l47.277-47.283c6.53-6.53,17.109-6.53,23.639,0
	c6.53,6.524,6.53,17.109,0,23.639l-47.277,47.283C143.085,203.427,132.507,203.427,125.977,196.897z"/>
<path style="fill:#99522E;" d="M149.617,149.616l-23.64,23.643c-6.53,6.53-6.53,17.114,0,23.639c6.53,6.53,17.109,6.53,23.639,0
	l23.64-23.643L149.617,149.616z"/>
<path style="fill:#A6673A;" d="M291.439,55.063l-47.253,47.254c-6.505,6.506-17.093,6.533-23.625,0
	c-6.576-6.464-6.576-17.051,0-23.626l47.253-47.254L291.439,55.063z"/>
</svg>